<svg width="51" height="16" viewBox="0 0 51 16" fill="none" xmlns="http://www.w3.org/2000/svg">
<rect width="51" height="16" fill="#E6E8EC"/>
<path d="M10.0081 4.74C10.6415 4.3 11.3681 4.08 12.1881 4.08C12.8948 4.08 13.4581 4.24 13.8781 4.56C14.2981 4.88 14.5081 5.32667 14.5081 5.9C14.5081 6.17333 14.4548 6.43 14.3481 6.67C14.2481 6.91 14.0948 7.13 13.8881 7.33C13.6881 7.53 13.4915 7.7 13.2981 7.84C13.1115 7.97333 12.8748 8.12333 12.5881 8.29C12.5548 8.31 12.4515 8.37 12.2781 8.47C12.1115 8.57 12.0048 8.63333 11.9581 8.66C11.9181 8.68667 11.8248 8.74667 11.6781 8.84C11.5381 8.92667 11.4448 8.99 11.3981 9.03C11.3581 9.07 11.2848 9.13333 11.1781 9.22C11.0781 9.30667 11.0081 9.38 10.9681 9.44C10.9348 9.5 10.8881 9.57667 10.8281 9.67C10.7748 9.75667 10.7381 9.84333 10.7181 9.93C10.6981 10.0167 10.6881 10.11 10.6881 10.21L14.5581 10.2V11H9.76813V10.6C9.76813 10.2267 9.82813 9.89 9.94813 9.59C10.0681 9.28333 10.2381 9.02333 10.4581 8.81C10.6848 8.59 10.9081 8.40667 11.1281 8.26C11.3481 8.10667 11.6048 7.94333 11.8981 7.77C11.9648 7.73667 12.0148 7.71 12.0481 7.69C12.6548 7.33667 13.0515 7.06667 13.2381 6.88C13.5248 6.58667 13.6681 6.25667 13.6681 5.89C13.6681 5.55667 13.5315 5.30333 13.2581 5.13C12.9915 4.95 12.6115 4.86 12.1181 4.86C11.3981 4.86 10.6948 5.1 10.0081 5.58V4.74ZM15.8003 5.84C15.8003 5.36 16.0103 4.94667 16.4303 4.6C16.8503 4.25333 17.467 4.08 18.2803 4.08C19.0336 4.08 19.6403 4.26333 20.1003 4.63C20.5603 4.99667 20.797 5.43667 20.8103 5.95C20.8303 6.65 20.5203 7.22333 19.8803 7.67C20.6603 8.05667 21.0503 8.59 21.0503 9.27C21.0503 9.79 20.8203 10.23 20.3603 10.59C19.907 10.9433 19.2336 11.12 18.3403 11.12C17.4536 11.12 16.767 10.9267 16.2803 10.54C15.8003 10.1533 15.5603 9.68333 15.5603 9.13C15.5603 8.79667 15.657 8.46667 15.8503 8.14C16.0503 7.80667 16.3403 7.52667 16.7203 7.3C16.107 6.92667 15.8003 6.44 15.8003 5.84ZM18.3803 7.94C18.0336 7.84667 17.717 7.74667 17.4303 7.64C17.097 7.8 16.8403 8.00667 16.6603 8.26C16.487 8.51333 16.4003 8.77333 16.4003 9.04C16.4003 9.44667 16.567 9.76667 16.9003 10C17.2403 10.2267 17.727 10.34 18.3603 10.34C18.8936 10.34 19.3336 10.2467 19.6803 10.06C20.0336 9.86667 20.2103 9.61667 20.2103 9.31C20.2103 9.05 20.117 8.83 19.9303 8.65C19.7503 8.46333 19.5736 8.33667 19.4003 8.27C19.227 8.20333 18.9403 8.11 18.5403 7.99C18.467 7.97 18.4136 7.95333 18.3803 7.94ZM19.9703 6.1C19.9703 5.74667 19.8203 5.45333 19.5203 5.22C19.2203 4.98 18.8003 4.86 18.2603 4.86C17.767 4.86 17.3736 4.95333 17.0803 5.14C16.787 5.32 16.6403 5.55 16.6403 5.83C16.6403 6.02333 16.6803 6.19333 16.7603 6.34C16.847 6.48 16.9736 6.6 17.1403 6.7C17.3136 6.79333 17.4703 6.87 17.6103 6.93C17.7503 6.98333 17.937 7.04333 18.1703 7.11C18.197 7.11667 18.217 7.12333 18.2303 7.13C18.2436 7.13 18.2603 7.13333 18.2803 7.14C18.3003 7.14667 18.3203 7.15333 18.3403 7.16C18.3603 7.16667 18.4736 7.2 18.6803 7.26C18.8936 7.31333 19.057 7.35667 19.1703 7.39C19.7036 7.04333 19.9703 6.61333 19.9703 6.1ZM25.5352 11H24.7752V6.2H25.6452L27.3952 8.86L29.1452 6.2H30.0152V11H29.2552V7.38L27.6952 9.75H27.0952L25.5352 7.38V11ZM35.3939 10C35.3939 10.2467 35.5172 10.37 35.7639 10.37C35.8706 10.37 35.9939 10.3467 36.1339 10.3V10.95C35.9339 11.0233 35.7339 11.06 35.5339 11.06C35.0739 11.06 34.7806 10.8667 34.6539 10.48C34.1406 10.9067 33.5172 11.12 32.7839 11.12C32.3172 11.12 31.9172 10.9967 31.5839 10.75C31.2572 10.4967 31.0939 10.1333 31.0939 9.66C31.0939 9.09333 31.3039 8.68333 31.7239 8.43C32.1506 8.17 32.6639 8.04 33.2639 8.04C33.7039 8.04 34.1472 8.09 34.5939 8.19V8.02C34.5939 7.65333 34.4739 7.36333 34.2339 7.15C33.9939 6.93 33.6572 6.82 33.2239 6.82C32.6172 6.82 32.0339 6.94 31.4739 7.18V6.4C32.1006 6.18667 32.7106 6.08 33.3039 6.08C33.9572 6.08 34.4672 6.25667 34.8339 6.61C35.2072 6.95667 35.3939 7.46 35.3939 8.12V10ZM31.9139 9.62C31.9139 9.88667 32.0139 10.09 32.2139 10.23C32.4206 10.3633 32.6672 10.43 32.9539 10.43C33.6139 10.43 34.1606 10.1967 34.5939 9.73V8.85C34.1406 8.75667 33.7339 8.71 33.3739 8.71C32.9672 8.71 32.6206 8.78333 32.3339 8.93C32.0539 9.07 31.9139 9.3 31.9139 9.62ZM37.472 11H36.532L37.922 9.24C37.5553 9.13333 37.272 8.94667 37.072 8.68C36.872 8.41333 36.772 8.10667 36.772 7.76C36.772 7.32 36.932 6.95 37.252 6.65C37.572 6.35 38.012 6.2 38.572 6.2H40.932V11H40.132V9.32H38.782L37.472 11ZM37.852 7.14C37.6653 7.28667 37.572 7.49333 37.572 7.76C37.572 8.02667 37.6653 8.23333 37.852 8.38C38.0453 8.52667 38.3086 8.6 38.642 8.6H40.132V6.92H38.642C38.3086 6.92 38.0453 6.99333 37.852 7.14Z" fill="#121723"/>
</svg>
