<svg width="51" height="16" viewBox="0 0 51 16" fill="none" xmlns="http://www.w3.org/2000/svg">
<rect width="51" height="16" fill="#E6E8EC"/>
<path d="M9.35871 4.74C9.99204 4.3 10.7187 4.08 11.5387 4.08C12.2454 4.08 12.8087 4.24 13.2287 4.56C13.6487 4.88 13.8587 5.32667 13.8587 5.9C13.8587 6.17333 13.8054 6.43 13.6987 6.67C13.5987 6.91 13.4454 7.13 13.2387 7.33C13.0387 7.53 12.842 7.7 12.6487 7.84C12.462 7.97333 12.2254 8.12333 11.9387 8.29C11.9054 8.31 11.802 8.37 11.6287 8.47C11.462 8.57 11.3554 8.63333 11.3087 8.66C11.2687 8.68667 11.1754 8.74667 11.0287 8.84C10.8887 8.92667 10.7954 8.99 10.7487 9.03C10.7087 9.07 10.6354 9.13333 10.5287 9.22C10.4287 9.30667 10.3587 9.38 10.3187 9.44C10.2854 9.5 10.2387 9.57667 10.1787 9.67C10.1254 9.75667 10.0887 9.84333 10.0687 9.93C10.0487 10.0167 10.0387 10.11 10.0387 10.21L13.9087 10.2V11H9.11871V10.6C9.11871 10.2267 9.17871 9.89 9.29871 9.59C9.41871 9.28333 9.58871 9.02333 9.80871 8.81C10.0354 8.59 10.2587 8.40667 10.4787 8.26C10.6987 8.10667 10.9554 7.94333 11.2487 7.77C11.3154 7.73667 11.3654 7.71 11.3987 7.69C12.0054 7.33667 12.402 7.06667 12.5887 6.88C12.8754 6.58667 13.0187 6.25667 13.0187 5.89C13.0187 5.55667 12.882 5.30333 12.6087 5.13C12.342 4.95 11.962 4.86 11.4687 4.86C10.7487 4.86 10.0454 5.1 9.35871 5.58V4.74ZM18.3311 11H17.6511V6.2H18.4511V9.71L21.3911 6.2H22.0711V11H21.2711V7.49L18.3311 11ZM29.8696 6.76C30.3762 7.20667 30.6296 7.82 30.6296 8.6C30.6296 9.38 30.3762 9.99667 29.8696 10.45C29.3696 10.8967 28.7696 11.12 28.0696 11.12C27.4362 11.12 26.8729 10.93 26.3796 10.55C25.8929 10.1633 25.6096 9.63667 25.5296 8.97H24.3496V11H23.5496V6.2H24.3496V8.23H25.5296C25.6096 7.56333 25.8929 7.04 26.3796 6.66C26.8729 6.27333 27.4362 6.08 28.0696 6.08C28.7696 6.08 29.3696 6.30667 29.8696 6.76ZM26.8096 7.32C26.4762 7.63333 26.3096 8.06 26.3096 8.6C26.3096 9.14 26.4762 9.57 26.8096 9.89C27.1429 10.2033 27.5629 10.36 28.0696 10.36C28.5762 10.36 28.9962 10.2033 29.3296 9.89C29.6629 9.57 29.8296 9.14 29.8296 8.6C29.8296 8.06 29.6629 7.63333 29.3296 7.32C28.9962 7 28.5762 6.84 28.0696 6.84C27.5629 6.84 27.1429 7 26.8096 7.32ZM32.582 11H31.782V6.2H32.582V8.23H35.362V6.2H36.162V11H35.362V8.97H32.582V11ZM38.1214 11H37.1814L38.5714 9.24C38.2047 9.13333 37.9214 8.94667 37.7214 8.68C37.5214 8.41333 37.4214 8.10667 37.4214 7.76C37.4214 7.32 37.5814 6.95 37.9014 6.65C38.2214 6.35 38.6614 6.2 39.2214 6.2H41.5814V11H40.7814V9.32H39.4314L38.1214 11ZM38.5014 7.14C38.3147 7.28667 38.2214 7.49333 38.2214 7.76C38.2214 8.02667 38.3147 8.23333 38.5014 8.38C38.6947 8.52667 38.958 8.6 39.2914 8.6H40.7814V6.92H39.2914C38.958 6.92 38.6947 6.99333 38.5014 7.14Z" fill="#121723"/>
</svg>
