<svg width="51" height="16" viewBox="0 0 51 16" fill="none" xmlns="http://www.w3.org/2000/svg">
<rect width="51" height="16" fill="#E6E8EC"/>
<path d="M9.0425 5.84C9.0425 5.36 9.2525 4.94667 9.6725 4.6C10.0925 4.25333 10.7092 4.08 11.5225 4.08C12.2758 4.08 12.8825 4.26333 13.3425 4.63C13.8025 4.99667 14.0392 5.43667 14.0525 5.95C14.0725 6.65 13.7625 7.22333 13.1225 7.67C13.9025 8.05667 14.2925 8.59 14.2925 9.27C14.2925 9.79 14.0625 10.23 13.6025 10.59C13.1492 10.9433 12.4758 11.12 11.5825 11.12C10.6958 11.12 10.0092 10.9267 9.5225 10.54C9.0425 10.1533 8.8025 9.68333 8.8025 9.13C8.8025 8.79667 8.89917 8.46667 9.0925 8.14C9.2925 7.80667 9.5825 7.52667 9.9625 7.3C9.34917 6.92667 9.0425 6.44 9.0425 5.84ZM11.6225 7.94C11.2758 7.84667 10.9592 7.74667 10.6725 7.64C10.3392 7.8 10.0825 8.00667 9.9025 8.26C9.72917 8.51333 9.6425 8.77333 9.6425 9.04C9.6425 9.44667 9.80917 9.76667 10.1425 10C10.4825 10.2267 10.9692 10.34 11.6025 10.34C12.1358 10.34 12.5758 10.2467 12.9225 10.06C13.2758 9.86667 13.4525 9.61667 13.4525 9.31C13.4525 9.05 13.3592 8.83 13.1725 8.65C12.9925 8.46333 12.8158 8.33667 12.6425 8.27C12.4692 8.20333 12.1825 8.11 11.7825 7.99C11.7092 7.97 11.6558 7.95333 11.6225 7.94ZM13.2125 6.1C13.2125 5.74667 13.0625 5.45333 12.7625 5.22C12.4625 4.98 12.0425 4.86 11.5025 4.86C11.0092 4.86 10.6158 4.95333 10.3225 5.14C10.0292 5.32 9.8825 5.55 9.8825 5.83C9.8825 6.02333 9.9225 6.19333 10.0025 6.34C10.0892 6.48 10.2158 6.6 10.3825 6.7C10.5558 6.79333 10.7125 6.87 10.8525 6.93C10.9925 6.98333 11.1792 7.04333 11.4125 7.11C11.4392 7.11667 11.4592 7.12333 11.4725 7.13C11.4858 7.13 11.5025 7.13333 11.5225 7.14C11.5425 7.14667 11.5625 7.15333 11.5825 7.16C11.6025 7.16667 11.7158 7.2 11.9225 7.26C12.1358 7.31333 12.2992 7.35667 12.4125 7.39C12.9458 7.04333 13.2125 6.61333 13.2125 6.1ZM18.6973 11H18.0173V6.2H18.8173V9.71L21.7573 6.2H22.4373V11H21.6373V7.49L18.6973 11ZM30.2358 6.76C30.7424 7.20667 30.9958 7.82 30.9958 8.6C30.9958 9.38 30.7424 9.99667 30.2358 10.45C29.7358 10.8967 29.1358 11.12 28.4358 11.12C27.8024 11.12 27.2391 10.93 26.7458 10.55C26.2591 10.1633 25.9758 9.63667 25.8958 8.97H24.7158V11H23.9158V6.2H24.7158V8.23H25.8958C25.9758 7.56333 26.2591 7.04 26.7458 6.66C27.2391 6.27333 27.8024 6.08 28.4358 6.08C29.1358 6.08 29.7358 6.30667 30.2358 6.76ZM27.1758 7.32C26.8424 7.63333 26.6758 8.06 26.6758 8.6C26.6758 9.14 26.8424 9.57 27.1758 9.89C27.5091 10.2033 27.9291 10.36 28.4358 10.36C28.9424 10.36 29.3624 10.2033 29.6958 9.89C30.0291 9.57 30.1958 9.14 30.1958 8.6C30.1958 8.06 30.0291 7.63333 29.6958 7.32C29.3624 7 28.9424 6.84 28.4358 6.84C27.9291 6.84 27.5091 7 27.1758 7.32ZM32.9482 11H32.1482V6.2H32.9482V8.23H35.7282V6.2H36.5282V11H35.7282V8.97H32.9482V11ZM38.4876 11H37.5476L38.9376 9.24C38.5709 9.13333 38.2876 8.94667 38.0876 8.68C37.8876 8.41333 37.7876 8.10667 37.7876 7.76C37.7876 7.32 37.9476 6.95 38.2676 6.65C38.5876 6.35 39.0276 6.2 39.5876 6.2H41.9476V11H41.1476V9.32H39.7976L38.4876 11ZM38.8676 7.14C38.6809 7.28667 38.5876 7.49333 38.5876 7.76C38.5876 8.02667 38.6809 8.23333 38.8676 8.38C39.0609 8.52667 39.3242 8.6 39.6576 8.6H41.1476V6.92H39.6576C39.3242 6.92 39.0609 6.99333 38.8676 7.14Z" fill="#121723"/>
</svg>
