<svg width="51" height="16" viewBox="0 0 51 16" fill="none" xmlns="http://www.w3.org/2000/svg">
<rect width="51" height="16" fill="#E6E8EC"/>
<path d="M8.35871 4.2H8.97871V10.2H10.2487V11H6.70871V10.2H8.13871V5.09L6.70871 5.63V4.83L8.35871 4.2ZM14.4356 4.2H15.3456V8.71H16.6256V9.49H15.3456V11H14.5156V9.49H10.7256V8.74L14.4356 4.2ZM14.5156 8.71V5.33L11.7556 8.71H14.5156ZM20.8311 11H20.1511V6.2H20.9511V9.71L23.8911 6.2H24.5711V11H23.7711V7.49L20.8311 11ZM32.3696 6.76C32.8762 7.20667 33.1296 7.82 33.1296 8.6C33.1296 9.38 32.8762 9.99667 32.3696 10.45C31.8696 10.8967 31.2696 11.12 30.5696 11.12C29.9362 11.12 29.3729 10.93 28.8796 10.55C28.3929 10.1633 28.1096 9.63667 28.0296 8.97H26.8496V11H26.0496V6.2H26.8496V8.23H28.0296C28.1096 7.56333 28.3929 7.04 28.8796 6.66C29.3729 6.27333 29.9362 6.08 30.5696 6.08C31.2696 6.08 31.8696 6.30667 32.3696 6.76ZM29.3096 7.32C28.9762 7.63333 28.8096 8.06 28.8096 8.6C28.8096 9.14 28.9762 9.57 29.3096 9.89C29.6429 10.2033 30.0629 10.36 30.5696 10.36C31.0762 10.36 31.4962 10.2033 31.8296 9.89C32.1629 9.57 32.3296 9.14 32.3296 8.6C32.3296 8.06 32.1629 7.63333 31.8296 7.32C31.4962 7 31.0762 6.84 30.5696 6.84C30.0629 6.84 29.6429 7 29.3096 7.32ZM35.082 11H34.282V6.2H35.082V8.23H37.862V6.2H38.662V11H37.862V8.97H35.082V11ZM40.6214 11H39.6814L41.0714 9.24C40.7047 9.13333 40.4214 8.94667 40.2214 8.68C40.0214 8.41333 39.9214 8.10667 39.9214 7.76C39.9214 7.32 40.0814 6.95 40.4014 6.65C40.7214 6.35 41.1614 6.2 41.7214 6.2H44.0814V11H43.2814V9.32H41.9314L40.6214 11ZM41.0014 7.14C40.8147 7.28667 40.7214 7.49333 40.7214 7.76C40.7214 8.02667 40.8147 8.23333 41.0014 8.38C41.1947 8.52667 41.458 8.6 41.7914 8.6H43.2814V6.92H41.7914C41.458 6.92 41.1947 6.99333 41.0014 7.14Z" fill="#121723"/>
</svg>
