<svg width="51" height="16" viewBox="0 0 51 16" fill="none" xmlns="http://www.w3.org/2000/svg">
<rect width="51" height="16" fill="#E6E8EC"/>
<path d="M9.5943 4.2H13.6743V5H10.3843L10.2643 6.92C10.6243 6.82 11.011 6.77 11.4243 6.77C11.7643 6.77 12.081 6.81 12.3743 6.89C12.6676 6.96333 12.9376 7.08333 13.1843 7.25C13.4376 7.41 13.6376 7.63667 13.7843 7.93C13.931 8.21667 14.0043 8.55667 14.0043 8.95C14.0043 9.62333 13.7543 10.1533 13.2543 10.54C12.761 10.9267 12.131 11.12 11.3643 11.12C10.5376 11.12 9.81096 10.9667 9.1843 10.66V9.86C9.7843 10.18 10.4776 10.34 11.2643 10.34C11.8376 10.34 12.2943 10.22 12.6343 9.98C12.981 9.74 13.1543 9.39667 13.1543 8.95C13.1543 8.00333 12.481 7.53 11.1343 7.53C10.5476 7.53 9.96096 7.63667 9.3743 7.85L9.5943 4.2ZM18.3555 11H17.6755V6.2H18.4755V9.71L21.4155 6.2H22.0955V11H21.2955V7.49L18.3555 11ZM29.894 6.76C30.4007 7.20667 30.654 7.82 30.654 8.6C30.654 9.38 30.4007 9.99667 29.894 10.45C29.394 10.8967 28.794 11.12 28.094 11.12C27.4607 11.12 26.8973 10.93 26.404 10.55C25.9173 10.1633 25.634 9.63667 25.554 8.97H24.374V11H23.574V6.2H24.374V8.23H25.554C25.634 7.56333 25.9173 7.04 26.404 6.66C26.8973 6.27333 27.4607 6.08 28.094 6.08C28.794 6.08 29.394 6.30667 29.894 6.76ZM26.834 7.32C26.5007 7.63333 26.334 8.06 26.334 8.6C26.334 9.14 26.5007 9.57 26.834 9.89C27.1673 10.2033 27.5873 10.36 28.094 10.36C28.6007 10.36 29.0207 10.2033 29.354 9.89C29.6873 9.57 29.854 9.14 29.854 8.6C29.854 8.06 29.6873 7.63333 29.354 7.32C29.0207 7 28.6007 6.84 28.094 6.84C27.5873 6.84 27.1673 7 26.834 7.32ZM32.6064 11H31.8064V6.2H32.6064V8.23H35.3864V6.2H36.1864V11H35.3864V8.97H32.6064V11ZM38.1458 11H37.2058L38.5958 9.24C38.2291 9.13333 37.9458 8.94667 37.7458 8.68C37.5458 8.41333 37.4458 8.10667 37.4458 7.76C37.4458 7.32 37.6058 6.95 37.9258 6.65C38.2458 6.35 38.6858 6.2 39.2458 6.2H41.6058V11H40.8058V9.32H39.4558L38.1458 11ZM38.5258 7.14C38.3391 7.28667 38.2458 7.49333 38.2458 7.76C38.2458 8.02667 38.3391 8.23333 38.5258 8.38C38.7191 8.52667 38.9824 8.6 39.3158 8.6H40.8058V6.92H39.3158C38.9824 6.92 38.7191 6.99333 38.5258 7.14Z" fill="#121723"/>
</svg>
