<svg width="51" height="16" viewBox="0 0 51 16" fill="none" xmlns="http://www.w3.org/2000/svg">
<rect width="51" height="16" fill="#E6E8EC"/>
<path d="M10.3743 4.74C11.0077 4.3 11.7343 4.08 12.5543 4.08C13.261 4.08 13.8243 4.24 14.2443 4.56C14.6643 4.88 14.8743 5.32667 14.8743 5.9C14.8743 6.17333 14.821 6.43 14.7143 6.67C14.6143 6.91 14.461 7.13 14.2543 7.33C14.0543 7.53 13.8577 7.7 13.6643 7.84C13.4777 7.97333 13.241 8.12333 12.9543 8.29C12.921 8.31 12.8177 8.37 12.6443 8.47C12.4777 8.57 12.371 8.63333 12.3243 8.66C12.2843 8.68667 12.191 8.74667 12.0443 8.84C11.9043 8.92667 11.811 8.99 11.7643 9.03C11.7243 9.07 11.651 9.13333 11.5443 9.22C11.4443 9.30667 11.3743 9.38 11.3343 9.44C11.301 9.5 11.2543 9.57667 11.1943 9.67C11.141 9.75667 11.1043 9.84333 11.0843 9.93C11.0643 10.0167 11.0543 10.11 11.0543 10.21L14.9243 10.2V11H10.1343V10.6C10.1343 10.2267 10.1943 9.89 10.3143 9.59C10.4343 9.28333 10.6043 9.02333 10.8243 8.81C11.051 8.59 11.2743 8.40667 11.4943 8.26C11.7143 8.10667 11.971 7.94333 12.2643 7.77C12.331 7.73667 12.381 7.71 12.4143 7.69C13.021 7.33667 13.4177 7.06667 13.6043 6.88C13.891 6.58667 14.0343 6.25667 14.0343 5.89C14.0343 5.55667 13.8977 5.30333 13.6243 5.13C13.3577 4.95 12.9777 4.86 12.4843 4.86C11.7643 4.86 11.061 5.1 10.3743 5.58V4.74ZM16.1165 4.74C16.7499 4.3 17.4765 4.08 18.2965 4.08C19.0032 4.08 19.5665 4.24 19.9865 4.56C20.4065 4.88 20.6165 5.32667 20.6165 5.9C20.6165 6.17333 20.5632 6.43 20.4565 6.67C20.3565 6.91 20.2032 7.13 19.9965 7.33C19.7965 7.53 19.5999 7.7 19.4065 7.84C19.2199 7.97333 18.9832 8.12333 18.6965 8.29C18.6632 8.31 18.5599 8.37 18.3865 8.47C18.2199 8.57 18.1132 8.63333 18.0665 8.66C18.0265 8.68667 17.9332 8.74667 17.7865 8.84C17.6465 8.92667 17.5532 8.99 17.5065 9.03C17.4665 9.07 17.3932 9.13333 17.2865 9.22C17.1865 9.30667 17.1165 9.38 17.0765 9.44C17.0432 9.5 16.9965 9.57667 16.9365 9.67C16.8832 9.75667 16.8465 9.84333 16.8265 9.93C16.8065 10.0167 16.7965 10.11 16.7965 10.21L20.6665 10.2V11H15.8765V10.6C15.8765 10.2267 15.9365 9.89 16.0565 9.59C16.1765 9.28333 16.3465 9.02333 16.5665 8.81C16.7932 8.59 17.0165 8.40667 17.2365 8.26C17.4565 8.10667 17.7132 7.94333 18.0065 7.77C18.0732 7.73667 18.1232 7.71 18.1565 7.69C18.7632 7.33667 19.1599 7.06667 19.3465 6.88C19.6332 6.58667 19.7765 6.25667 19.7765 5.89C19.7765 5.55667 19.6399 5.30333 19.3665 5.13C19.0999 4.95 18.7199 4.86 18.2265 4.86C17.5065 4.86 16.8032 5.1 16.1165 5.58V4.74ZM25.1689 11H24.4089V6.2H25.2789L27.0289 8.86L28.7789 6.2H29.6489V11H28.8889V7.38L27.3289 9.75H26.7289L25.1689 7.38V11ZM35.0277 10C35.0277 10.2467 35.151 10.37 35.3977 10.37C35.5044 10.37 35.6277 10.3467 35.7677 10.3V10.95C35.5677 11.0233 35.3677 11.06 35.1677 11.06C34.7077 11.06 34.4144 10.8667 34.2877 10.48C33.7744 10.9067 33.151 11.12 32.4177 11.12C31.951 11.12 31.551 10.9967 31.2177 10.75C30.891 10.4967 30.7277 10.1333 30.7277 9.66C30.7277 9.09333 30.9377 8.68333 31.3577 8.43C31.7844 8.17 32.2977 8.04 32.8977 8.04C33.3377 8.04 33.781 8.09 34.2277 8.19V8.02C34.2277 7.65333 34.1077 7.36333 33.8677 7.15C33.6277 6.93 33.291 6.82 32.8577 6.82C32.251 6.82 31.6677 6.94 31.1077 7.18V6.4C31.7344 6.18667 32.3444 6.08 32.9377 6.08C33.591 6.08 34.101 6.25667 34.4677 6.61C34.841 6.95667 35.0277 7.46 35.0277 8.12V10ZM31.5477 9.62C31.5477 9.88667 31.6477 10.09 31.8477 10.23C32.0544 10.3633 32.301 10.43 32.5877 10.43C33.2477 10.43 33.7944 10.1967 34.2277 9.73V8.85C33.7744 8.75667 33.3677 8.71 33.0077 8.71C32.601 8.71 32.2544 8.78333 31.9677 8.93C31.6877 9.07 31.5477 9.3 31.5477 9.62ZM37.1057 11H36.1657L37.5557 9.24C37.1891 9.13333 36.9057 8.94667 36.7057 8.68C36.5057 8.41333 36.4057 8.10667 36.4057 7.76C36.4057 7.32 36.5657 6.95 36.8857 6.65C37.2057 6.35 37.6457 6.2 38.2057 6.2H40.5657V11H39.7657V9.32H38.4157L37.1057 11ZM37.4857 7.14C37.2991 7.28667 37.2057 7.49333 37.2057 7.76C37.2057 8.02667 37.2991 8.23333 37.4857 8.38C37.6791 8.52667 37.9424 8.6 38.2757 8.6H39.7657V6.92H38.2757C37.9424 6.92 37.6791 6.99333 37.4857 7.14Z" fill="#121723"/>
</svg>
