<svg width="51" height="16" viewBox="0 0 51 16" fill="none" xmlns="http://www.w3.org/2000/svg">
<rect width="51" height="16" fill="#E6E8EC"/>
<path d="M12.2308 4.2H12.8508V10.2H14.1208V11H10.5808V10.2H12.0108V5.09L10.5808 5.63V4.83L12.2308 4.2ZM15.0777 5.84C15.0777 5.36 15.2877 4.94667 15.7077 4.6C16.1277 4.25333 16.7443 4.08 17.5577 4.08C18.311 4.08 18.9177 4.26333 19.3777 4.63C19.8377 4.99667 20.0743 5.43667 20.0877 5.95C20.1077 6.65 19.7977 7.22333 19.1577 7.67C19.9377 8.05667 20.3277 8.59 20.3277 9.27C20.3277 9.79 20.0977 10.23 19.6377 10.59C19.1843 10.9433 18.511 11.12 17.6177 11.12C16.731 11.12 16.0443 10.9267 15.5577 10.54C15.0777 10.1533 14.8377 9.68333 14.8377 9.13C14.8377 8.79667 14.9343 8.46667 15.1277 8.14C15.3277 7.80667 15.6177 7.52667 15.9977 7.3C15.3843 6.92667 15.0777 6.44 15.0777 5.84ZM17.6577 7.94C17.311 7.84667 16.9943 7.74667 16.7077 7.64C16.3743 7.8 16.1177 8.00667 15.9377 8.26C15.7643 8.51333 15.6777 8.77333 15.6777 9.04C15.6777 9.44667 15.8443 9.76667 16.1777 10C16.5177 10.2267 17.0043 10.34 17.6377 10.34C18.171 10.34 18.611 10.2467 18.9577 10.06C19.311 9.86667 19.4877 9.61667 19.4877 9.31C19.4877 9.05 19.3943 8.83 19.2077 8.65C19.0277 8.46333 18.851 8.33667 18.6777 8.27C18.5043 8.20333 18.2177 8.11 17.8177 7.99C17.7443 7.97 17.691 7.95333 17.6577 7.94ZM19.2477 6.1C19.2477 5.74667 19.0977 5.45333 18.7977 5.22C18.4977 4.98 18.0777 4.86 17.5377 4.86C17.0443 4.86 16.651 4.95333 16.3577 5.14C16.0643 5.32 15.9177 5.55 15.9177 5.83C15.9177 6.02333 15.9577 6.19333 16.0377 6.34C16.1243 6.48 16.251 6.6 16.4177 6.7C16.591 6.79333 16.7477 6.87 16.8877 6.93C17.0277 6.98333 17.2143 7.04333 17.4477 7.11C17.4743 7.11667 17.4943 7.12333 17.5077 7.13C17.521 7.13 17.5377 7.13333 17.5577 7.14C17.5777 7.14667 17.5977 7.15333 17.6177 7.16C17.6377 7.16667 17.751 7.2 17.9577 7.26C18.171 7.31333 18.3343 7.35667 18.4477 7.39C18.981 7.04333 19.2477 6.61333 19.2477 6.1ZM24.8125 11H24.0525V6.2H24.9225L26.6725 8.86L28.4225 6.2H29.2925V11H28.5325V7.38L26.9725 9.75H26.3725L24.8125 7.38V11ZM34.6713 10C34.6713 10.2467 34.7946 10.37 35.0413 10.37C35.1479 10.37 35.2713 10.3467 35.4113 10.3V10.95C35.2113 11.0233 35.0113 11.06 34.8113 11.06C34.3513 11.06 34.0579 10.8667 33.9313 10.48C33.4179 10.9067 32.7946 11.12 32.0613 11.12C31.5946 11.12 31.1946 10.9967 30.8613 10.75C30.5346 10.4967 30.3713 10.1333 30.3713 9.66C30.3713 9.09333 30.5813 8.68333 31.0013 8.43C31.4279 8.17 31.9413 8.04 32.5413 8.04C32.9813 8.04 33.4246 8.09 33.8713 8.19V8.02C33.8713 7.65333 33.7513 7.36333 33.5113 7.15C33.2713 6.93 32.9346 6.82 32.5013 6.82C31.8946 6.82 31.3113 6.94 30.7513 7.18V6.4C31.3779 6.18667 31.9879 6.08 32.5813 6.08C33.2346 6.08 33.7446 6.25667 34.1113 6.61C34.4846 6.95667 34.6713 7.46 34.6713 8.12V10ZM31.1913 9.62C31.1913 9.88667 31.2913 10.09 31.4913 10.23C31.6979 10.3633 31.9446 10.43 32.2313 10.43C32.8913 10.43 33.4379 10.1967 33.8713 9.73V8.85C33.4179 8.75667 33.0113 8.71 32.6513 8.71C32.2446 8.71 31.8979 8.78333 31.6113 8.93C31.3313 9.07 31.1913 9.3 31.1913 9.62ZM36.7493 11H35.8093L37.1993 9.24C36.8326 9.13333 36.5493 8.94667 36.3493 8.68C36.1493 8.41333 36.0493 8.10667 36.0493 7.76C36.0493 7.32 36.2093 6.95 36.5293 6.65C36.8493 6.35 37.2893 6.2 37.8493 6.2H40.2093V11H39.4093V9.32H38.0593L36.7493 11ZM37.1293 7.14C36.9426 7.28667 36.8493 7.49333 36.8493 7.76C36.8493 8.02667 36.9426 8.23333 37.1293 8.38C37.3226 8.52667 37.586 8.6 37.9193 8.6H39.4093V6.92H37.9193C37.586 6.92 37.3226 6.99333 37.1293 7.14Z" fill="#121723"/>
</svg>
