<svg width="51" height="16" viewBox="0 0 51 16" fill="none" xmlns="http://www.w3.org/2000/svg">
<rect width="51" height="16" fill="#E6E8EC"/>
<path d="M9.43293 4.2H10.0529V10.2H11.3229V11H7.78293V10.2H9.21293V5.09L7.78293 5.63V4.83L9.43293 4.2ZM13.7298 4.2H14.3498V10.2H15.6198V11H12.0798V10.2H13.5098V5.09L12.0798 5.63V4.83L13.7298 4.2ZM19.7569 11H19.0769V6.2H19.8769V9.71L22.8169 6.2H23.4969V11H22.6969V7.49L19.7569 11ZM31.2954 6.76C31.802 7.20667 32.0554 7.82 32.0554 8.6C32.0554 9.38 31.802 9.99667 31.2954 10.45C30.7954 10.8967 30.1954 11.12 29.4954 11.12C28.862 11.12 28.2987 10.93 27.8054 10.55C27.3187 10.1633 27.0354 9.63667 26.9554 8.97H25.7754V11H24.9754V6.2H25.7754V8.23H26.9554C27.0354 7.56333 27.3187 7.04 27.8054 6.66C28.2987 6.27333 28.862 6.08 29.4954 6.08C30.1954 6.08 30.7954 6.30667 31.2954 6.76ZM28.2354 7.32C27.902 7.63333 27.7354 8.06 27.7354 8.6C27.7354 9.14 27.902 9.57 28.2354 9.89C28.5687 10.2033 28.9887 10.36 29.4954 10.36C30.002 10.36 30.422 10.2033 30.7554 9.89C31.0887 9.57 31.2554 9.14 31.2554 8.6C31.2554 8.06 31.0887 7.63333 30.7554 7.32C30.422 7 30.002 6.84 29.4954 6.84C28.9887 6.84 28.5687 7 28.2354 7.32ZM34.0078 11H33.2078V6.2H34.0078V8.23H36.7878V6.2H37.5878V11H36.7878V8.97H34.0078V11ZM39.5471 11H38.6071L39.9971 9.24C39.6305 9.13333 39.3471 8.94667 39.1471 8.68C38.9471 8.41333 38.8471 8.10667 38.8471 7.76C38.8471 7.32 39.0071 6.95 39.3271 6.65C39.6471 6.35 40.0871 6.2 40.6471 6.2H43.0071V11H42.2071V9.32H40.8571L39.5471 11ZM39.9271 7.14C39.7405 7.28667 39.6471 7.49333 39.6471 7.76C39.6471 8.02667 39.7405 8.23333 39.9271 8.38C40.1205 8.52667 40.3838 8.6 40.7171 8.6H42.2071V6.92H40.7171C40.3838 6.92 40.1205 6.99333 39.9271 7.14Z" fill="#121723"/>
</svg>
