<svg width="300" height="70" viewBox="0 0 300 70" fill="none" xmlns="http://www.w3.org/2000/svg">
<rect x="1" y="1" width="298" height="68" rx="34" stroke="#F0D288" stroke-width="2"/>
<g clip-path="url(#clip0_24531_5236)">
<path d="M23.5 45C29.0228 45 33.5 40.5228 33.5 35C33.5 29.4771 29.0228 25 23.5 25C17.9772 25 13.5 29.4771 13.5 35C13.5 40.5228 17.9772 45 23.5 45Z" fill="#F0D288"/>
<path d="M30.4385 29.5439L26.7295 28.1768L21.3957 35.8637L21.9268 32.3751L19.0206 30.6822L13.674 37.1141C13.9243 38.3858 14.4102 39.5718 15.0839 40.6239L18.2737 36.7711L17.0999 41.2962L20.7371 42.6271L26.1408 34.8464L24.9569 39.2958L27.9033 41.0179L33.558 35.3174C33.5592 35.2534 33.5599 35.1889 33.5599 35.1246C33.5599 33.7826 33.3017 32.5013 32.8329 31.329L29.5482 34.6538L30.4385 29.5439Z" fill="#121723"/>
</g>
<path d="M45.48 41H43.2V27H45.48V32.84H48.24L52.14 27H54.72L50.08 33.82L55.08 41H52.5L48.28 34.94H45.48V41ZM59.6209 38.64L62.4809 31.4H64.7209L60.2209 42.3C59.3009 44.5267 58.0143 45.64 56.3609 45.64C55.9743 45.64 55.5543 45.5867 55.1009 45.48V43.66C55.3943 43.7533 55.7209 43.8 56.0809 43.8C57.1076 43.8 57.9009 43.0533 58.4609 41.56L58.6609 41.08L54.1009 31.4H56.3809L59.6209 38.64ZM68.4566 41H66.3166V31.4H75.3966V41H73.2566V33.28H68.4566V41ZM79.9144 41H78.0744V31.4H80.2144V37.68L85.3544 31.4H87.1944V41H85.0544V34.72L79.9144 41ZM94.3313 41H92.1913V33.28H88.8713V31.4H97.6313V33.28H94.3313V41ZM104.065 41H99.3048V31.4H101.445V34.6H104.065C105.238 34.6 106.165 34.9 106.845 35.5C107.525 36.1 107.865 36.8667 107.865 37.8C107.865 38.7333 107.525 39.5 106.845 40.1C106.165 40.7 105.238 41 104.065 41ZM101.445 36.28V39.3H103.645C104.285 39.3 104.785 39.1733 105.145 38.92C105.505 38.6533 105.685 38.28 105.685 37.8C105.685 37.3067 105.505 36.9333 105.145 36.68C104.785 36.4133 104.285 36.28 103.645 36.28H101.445ZM116.601 41H114.461V31.4H116.601V35.26H121.401V31.4H123.541V41H121.401V37.14H116.601V41ZM134.399 38.78C134.399 39.2467 134.632 39.48 135.099 39.48C135.259 39.48 135.472 39.44 135.739 39.36V40.9C135.339 41.06 134.886 41.14 134.379 41.14C133.419 41.14 132.779 40.7667 132.459 40.02C131.432 40.8467 130.226 41.26 128.839 41.26C127.906 41.26 127.112 41.0067 126.459 40.5C125.806 39.98 125.479 39.2533 125.479 38.32C125.479 37.2 125.899 36.3867 126.739 35.88C127.579 35.36 128.586 35.1 129.759 35.1C130.532 35.1 131.366 35.1933 132.259 35.38V35.04C132.259 34.4267 132.039 33.9333 131.599 33.56C131.159 33.1867 130.539 33 129.739 33C128.552 33 127.399 33.2467 126.279 33.74V31.78C127.532 31.3533 128.759 31.14 129.959 31.14C131.359 31.14 132.446 31.4867 133.219 32.18C134.006 32.8733 134.399 33.9267 134.399 35.34V38.78ZM130.179 36.6C129.472 36.6 128.879 36.7267 128.399 36.98C127.919 37.2333 127.679 37.6333 127.679 38.18C127.679 38.6333 127.852 38.9867 128.199 39.24C128.546 39.48 128.972 39.6 129.479 39.6C130.572 39.6 131.499 39.22 132.259 38.46V36.84C131.486 36.68 130.792 36.6 130.179 36.6ZM143.878 41H141.178L145.198 35.74C144.185 35.4467 143.378 34.9533 142.778 34.26C142.192 33.5667 141.898 32.6667 141.898 31.56C141.898 30.5333 142.158 29.6667 142.678 28.96C143.212 28.2533 143.878 27.7533 144.678 27.46C145.478 27.1533 146.378 27 147.378 27H152.838V41H150.558V36.04H147.638L143.878 41ZM145.078 29.7C144.505 30.1133 144.218 30.7333 144.218 31.56C144.218 32.3867 144.505 33.0067 145.078 33.42C145.652 33.82 146.405 34.02 147.338 34.02H150.558V29.08H147.338C146.405 29.08 145.652 29.2867 145.078 29.7ZM158.027 41H155.887V31.4H158.027V35.26H162.827V31.4H164.967V41H162.827V37.14H158.027V41ZM168.805 43.58H166.785V39.24H168.105C169.158 37.3733 169.665 34.76 169.625 31.4H177.125V39.24H178.545V43.58H176.525V41H168.805V43.58ZM171.625 33.16C171.545 35.56 171.118 37.5867 170.345 39.24H174.965V33.16H171.625ZM179.701 36.2C179.701 35.3733 179.848 34.6267 180.141 33.96C180.434 33.28 180.821 32.7467 181.301 32.36C181.781 31.96 182.301 31.66 182.861 31.46C183.421 31.2467 183.988 31.14 184.561 31.14C185.294 31.14 185.954 31.2533 186.541 31.48C187.141 31.7067 187.621 32.0133 187.981 32.4C188.341 32.7867 188.634 33.2333 188.861 33.74C189.088 34.2467 189.208 34.78 189.221 35.34C189.234 35.8867 189.188 36.44 189.081 37H181.861C181.968 37.8133 182.368 38.4267 183.061 38.84C183.754 39.24 184.581 39.44 185.541 39.44C186.634 39.44 187.648 39.2133 188.581 38.76V40.6C187.661 41.04 186.514 41.26 185.141 41.26C183.581 41.26 182.281 40.82 181.241 39.94C180.214 39.06 179.701 37.8133 179.701 36.2ZM187.161 35.4C187.241 34.8533 187.074 34.3067 186.661 33.76C186.261 33.2 185.594 32.92 184.661 32.92C183.901 32.92 183.248 33.14 182.701 33.58C182.168 34.02 181.881 34.6267 181.841 35.4H187.161ZM193.359 41H191.219V31.4H193.359V35.2H194.939L197.699 31.4H200.139L196.659 36.16L200.519 41H198.059L194.899 37.02H193.359V41ZM200.834 36.28C200.834 34.6133 201.36 33.34 202.414 32.46C203.467 31.58 204.707 31.14 206.134 31.14C207.28 31.14 208.267 31.3867 209.094 31.88V33.84C208.347 33.3067 207.46 33.04 206.434 33.04C205.487 33.04 204.68 33.3067 204.014 33.84C203.347 34.36 203.014 35.1467 203.014 36.2C203.014 37.2267 203.34 38.0133 203.994 38.56C204.66 39.0933 205.46 39.36 206.394 39.36C207.407 39.36 208.34 39.1133 209.194 38.62V40.6C208.274 41.04 207.214 41.26 206.014 41.26C204.614 41.26 203.4 40.8333 202.374 39.98C201.347 39.1133 200.834 37.88 200.834 36.28ZM213.656 39.9C213.656 40.3267 213.529 40.6533 213.276 40.88C213.023 41.1067 212.703 41.22 212.316 41.22C211.929 41.22 211.603 41.1067 211.336 40.88C211.083 40.6533 210.956 40.3267 210.956 39.9C210.956 39.4867 211.083 39.1733 211.336 38.96C211.603 38.7333 211.929 38.62 212.316 38.62C212.703 38.62 213.023 38.7333 213.276 38.96C213.529 39.1733 213.656 39.4867 213.656 39.9ZM228.83 27H230.89V41H228.61V31.2L224.19 37.84H222.83L218.41 31.18V41H216.13V27H218.19L223.51 35.02L228.83 27ZM241.958 38.78C241.958 39.2467 242.191 39.48 242.658 39.48C242.818 39.48 243.031 39.44 243.298 39.36V40.9C242.898 41.06 242.444 41.14 241.938 41.14C240.978 41.14 240.338 40.7667 240.018 40.02C238.991 40.8467 237.784 41.26 236.398 41.26C235.464 41.26 234.671 41.0067 234.018 40.5C233.364 39.98 233.038 39.2533 233.038 38.32C233.038 37.2 233.458 36.3867 234.298 35.88C235.138 35.36 236.144 35.1 237.318 35.1C238.091 35.1 238.924 35.1933 239.818 35.38V35.04C239.818 34.4267 239.598 33.9333 239.158 33.56C238.718 33.1867 238.098 33 237.298 33C236.111 33 234.958 33.2467 233.838 33.74V31.78C235.091 31.3533 236.318 31.14 237.518 31.14C238.918 31.14 240.004 31.4867 240.778 32.18C241.564 32.8733 241.958 33.9267 241.958 35.34V38.78ZM237.738 36.6C237.031 36.6 236.438 36.7267 235.958 36.98C235.478 37.2333 235.238 37.6333 235.238 38.18C235.238 38.6333 235.411 38.9867 235.758 39.24C236.104 39.48 236.531 39.6 237.038 39.6C238.131 39.6 239.058 39.22 239.818 38.46V36.84C239.044 36.68 238.351 36.6 237.738 36.6ZM246.81 32.9C247.784 31.7267 249.017 31.14 250.51 31.14C251.924 31.14 253.07 31.6333 253.95 32.62C254.83 33.5933 255.27 34.7867 255.27 36.2C255.27 37.6133 254.83 38.8133 253.95 39.8C253.07 40.7733 251.924 41.26 250.51 41.26C249.07 41.26 247.917 40.76 247.05 39.76V45.4H244.91V31.4H246.81V32.9ZM252.25 38.5C252.81 37.9 253.09 37.1333 253.09 36.2C253.09 35.2667 252.81 34.5067 252.25 33.92C251.69 33.32 250.977 33.02 250.11 33.02C249.404 33.02 248.777 33.2133 248.23 33.6C247.697 33.9867 247.304 34.46 247.05 35.02V37.36C247.304 37.9333 247.697 38.4133 248.23 38.8C248.777 39.1867 249.404 39.38 250.11 39.38C250.977 39.38 251.69 39.0867 252.25 38.5ZM259.492 41H257.352V31.4H259.492V35.2H261.072L263.832 31.4H266.272L262.792 36.16L266.652 41H264.192L261.032 37.02H259.492V41ZM266.967 36.2C266.967 35.3733 267.113 34.6267 267.407 33.96C267.7 33.28 268.087 32.7467 268.567 32.36C269.047 31.96 269.567 31.66 270.127 31.46C270.687 31.2467 271.253 31.14 271.827 31.14C272.56 31.14 273.22 31.2533 273.807 31.48C274.407 31.7067 274.887 32.0133 275.247 32.4C275.607 32.7867 275.9 33.2333 276.127 33.74C276.353 34.2467 276.473 34.78 276.487 35.34C276.5 35.8867 276.453 36.44 276.347 37H269.127C269.233 37.8133 269.633 38.4267 270.327 38.84C271.02 39.24 271.847 39.44 272.807 39.44C273.9 39.44 274.913 39.2133 275.847 38.76V40.6C274.927 41.04 273.78 41.26 272.407 41.26C270.847 41.26 269.547 40.82 268.507 39.94C267.48 39.06 266.967 37.8133 266.967 36.2ZM274.427 35.4C274.507 34.8533 274.34 34.3067 273.927 33.76C273.527 33.2 272.86 32.92 271.927 32.92C271.167 32.92 270.513 33.14 269.967 33.58C269.433 34.02 269.147 34.6267 269.107 35.4H274.427ZM282.788 41H280.648V33.28H277.328V31.4H286.088V33.28H282.788V41Z" fill="#F0D288"/>
<defs>
<clipPath id="clip0_24531_5236">
<rect x="13.5" y="25" width="20" height="20" rx="10" fill="white"/>
</clipPath>
</defs>
</svg>
